HIERARCHY
ROOT Hips
{
  OFFSET 263.056 91.6644 -274.608
  CHANNELS 6 Xposition Yposition Zposition Zrotation Xrotation Yrotation
  JOINT LeftUpLeg
  {
    OFFSET 8.64259 1.95398 -2.38835
    CHANNELS 3 Zrotation Xrotation Yrotation
    JOINT LeftLeg
    {
      OFFSET 43.7702 0 0
      CHANNELS 3 Zrotation Xrotation Yrotation
      JOINT LeftFoot
      {
        OFFSET 40.6238 0 0
        CHANNELS 3 Zrotation Xrotation Yrotation
        JOINT LeftToeBase
        {
          OFFSET 12.7242 0 0
          CHANNELS 3 Zrotation Xrotation Yrotation
          End Site
          {
            OFFSET 0 0 0
          }
        }
      }
    }
  }
  JOINT RightUpLeg
  {
    OFFSET -8.2249 1.95398 -2.59336
    CHANNELS 3 Zrotation Xrotation Yrotation
    JOINT RightLeg
    {
      OFFSET 43.5653 0 0
      CHANNELS 3 Zrotation Xrotation Yrotation
      JOINT RightFoot
      {
        OFFSET 40.6238 0 0
        CHANNELS 3 Zrotation Xrotation Yrotation
        JOINT RightToeBase
        {
          OFFSET 12.7242 0 0
          CHANNELS 3 Zrotation Xrotation Yrotation
          End Site
          {
            OFFSET 0 0 0
          }
        }
      }
    }
  }
  JOINT Spine
  {
    OFFSET 0.165834 0.87714 6.61349
    CHANNELS 3 Zrotation Xrotation Yrotation
    JOINT Spine1
    {
      OFFSET 7.38963 1.71661e-005 0
      CHANNELS 3 Zrotation Xrotation Yrotation
      JOINT Spine2
      {
        OFFSET 11.9445 1.14441e-005 0
        CHANNELS 3 Zrotation Xrotation Yrotation
        JOINT Spine3
        {
          OFFSET 14.7254 4.19617e-005 0
          CHANNELS 3 Zrotation Xrotation Yrotation
          JOINT Spine4
          {
            OFFSET 10.9679 0 0
            CHANNELS 3 Zrotation Xrotation Yrotation
            JOINT RightShoulder
            {
              OFFSET 2.46616 -1.6653 3.69651
              CHANNELS 3 Zrotation Xrotation Yrotation
              JOINT RightArm
              {
                OFFSET 13.0012 0 0
                CHANNELS 3 Zrotation Xrotation Yrotation
                JOINT RightForeArm
                {
                  OFFSET 28.7848 1.52588e-005 0
                  CHANNELS 3 Zrotation Xrotation Yrotation
                  JOINT RightHand
                  {
                    OFFSET 26.5688 1.52588e-005 0
                    CHANNELS 3 Zrotation Xrotation Yrotation
                    End Site
                    {
                      OFFSET 0 0 0
                    }
                  }
                }
              }
            }
            JOINT LeftShoulder
            {
              OFFSET 2.38034 -1.29275 -3.7523
              CHANNELS 3 Zrotation Xrotation Yrotation
              JOINT LeftArm
              {
                OFFSET 16.3182 6.10352e-005 0
                CHANNELS 3 Zrotation Xrotation Yrotation
                JOINT LeftForeArm
                {
                  OFFSET 27.0901 0 0
                  CHANNELS 3 Zrotation Xrotation Yrotation
                  JOINT LeftHand
                  {
                    OFFSET 24.5451 1.52588e-005 0
                    CHANNELS 3 Zrotation Xrotation Yrotation
                    End Site
                    {
                      OFFSET 0 0 0
                    }
                  }
                }
              }
            }
            JOINT Neck
            {
              OFFSET 5.0226 -0.0266342 0
              CHANNELS 3 Zrotation Xrotation Yrotation
              JOINT Head
              {
                OFFSET 6.69364 2.86102e-005 0
                CHANNELS 3 Zrotation Xrotation Yrotation
                End Site
                {
                  OFFSET 0 0 0
                }
              }
            }
          }
        }
      }
    }
  }
}
MOTION
Frames:	6
Frame Time:	0.0416667
34.0157 84.1415 -19.8691 77.5288 -22.2549 83.963 -166.621 53.8151 96.2298 -61.3805 6.87238 -2.57556 61.1683 6.90233 14.426 50.3805 25.2673 4.99325 -172.081 32.699 72.7365 -48.0887 1.05215 -12.4632 73.1599 -7.71541 -3.70418 62.287 2.96943 3.75406 -0.0566856 9.38737 -90.4583 8.09702 -0.314008 -0.887278 -3.57418 -0.352764 -0.872607 -26.1069 -0.032854 -0.940636 -6.09425 -0.0328461 -0.940625 82.4755 -44.5502 -114.292 17.1198 3.4839 8.64078 -2.88328 -0.318396 -72.7327 -23.6784 -1.20872 0.618996 -109.512 -43.0829 46.9622 -29.7019 8.71655 15.8973 2.09436 2.71948 -37.635 13.9605 1.03933 3.47205 12.1874 26.217 10.6843 8.33431 24.3543 14.3412 
35.9918 83.7744 -20.2588 78.6648 -19.0104 85.1138 -164.459 55.5915 96.0828 -62.4327 3.11584 -2.86277 62.5428 7.36944 13.3618 46.5829 21.682 8.26639 -174.776 28.9811 72.7444 -46.7256 1.59235 -12.0207 74.8269 -8.62379 -4.01288 62.9456 2.47423 1.43895 0.084832 9.29705 -90.1939 8.27974 0.0840235 -0.388198 -3.39128 0.0668829 -0.391523 -25.9261 0.196828 -0.344989 -5.91342 0.196822 -0.344995 82.3648 -45.0323 -114.273 20.1036 0.150882 7.26207 -8.53494 0.250324 -83.1909 -20.5435 -1.45523 3.176 -106.393 -42.3667 51.1934 -35.1873 11.4576 20.1034 2.58533 4.95516 -40.177 12.9547 1.03464 3.97746 14.1495 24.5911 7.72995 7.8287 23.1687 13.8184 
38.8995 83.9379 -21.2413 79.6067 -14.5919 87.4703 -161.653 57.7099 95.8813 -64.4782 0.405306 -3.41127 62.0573 4.95775 10.8989 45.2834 20.2537 9.03306 -178.693 23.1419 73.5076 -41.9544 2.59278 -10.8322 74.3652 -8.94001 -4.17978 65.1063 2.69745 1.64733 0.246466 9.16098 -90.1111 8.55245 0.442567 -0.248314 -3.11845 0.431256 -0.267554 -25.6542 0.496757 -0.103811 -5.64151 0.496762 -0.103819 83.5799 -45.3372 -112.238 23.8651 -4.31707 6.38154 -16.112 3.53504 -90.7881 -21.7747 -1.42673 2.82407 -102.945 -41.0628 55.7976 -41.3266 12.1827 25.8856 3.18618 4.33656 -46.3782 14.0152 0.907429 2.54699 16.7723 23.096 5.38159 6.16383 21.8824 13.1135 
43.1338 84.5886 -23.1597 79.2749 -9.52316 89.6809 -157.388 58.7542 93.4973 -66.1427 0.797918 -4.33381 61.7044 4.26727 9.94845 43.6147 18.4834 10.6597 176.74 16.0021 73.4117 -34.0142 0.63546 -9.12483 70.7173 -7.12396 -3.5509 66.6075 2.31208 -0.176727 0.452086 8.77668 -90.1016 9.32159 0.855742 -0.262918 -2.3491 0.843359 -0.300328 -24.8865 0.895209 0.00645358 -4.8739 0.895203 0.00644079 84.9311 -45.2012 -110.143 27.3345 -8.6137 7.97094 -19.1067 6.61397 -100.854 -21.3394 -1.62376 4.19938 -101.319 -40.2853 57.9737 -46.3314 12.121 32.7423 2.51901 1.96031 -52.8913 14.7902 0.863821 1.94824 15.6551 20.4072 3.74769 6.35876 19.7451 12.3702 
48.0786 85.7473 -26.0945 79.0237 -5.51438 93.0672 -154.909 57.7922 93.0499 -66.3159 4.49026 -5.43968 59.4966 3.25391 12.1636 46.74 22.4281 10.2546 172.724 7.18427 73.4991 -22.7704 -2.59659 -6.59301 61.4718 -3.26912 -1.82474 65.5342 1.38558 -3.48136 0.705697 8.38595 -90.1641 10.1049 1.33161 -0.4375 -1.56546 1.31106 -0.495703 -24.1061 1.4015 -0.016992 -4.09342 1.40151 -0.0170004 86.0927 -44.9713 -108.369 30.4039 -11.627 10.0691 -23.7889 10.6468 -104.58 -19.1995 -1.80077 6.39243 -99.6464 -39.3305 60.2053 -50.3937 10.4258 37.6658 1.97696 0.595303 -56.2177 16.5066 0.852071 1.2916 13.8154 17.6091 2.26781 6.59316 17.3769 10.6309 
53.0097 87.0181 -30.0179 80.3119 -2.85317 96.672 -155.6 53.1931 95.2878 -64.7053 8.51899 -6.51894 58.0081 1.725 11.1098 47.555 23.9592 11.8469 170.324 -2.4585 74.1038 -10.1865 0.184551 -5.46762 46.8448 0.881188 1.11131 61.0155 1.62469 -1.69296 0.976996 8.36492 -90.2404 10.1498 1.83723 -0.632086 -1.52006 1.80761 -0.712371 -24.0656 1.94222 -0.0505061 -4.05296 1.94223 -0.0505076 86.76 -44.4594 -107.463 32.0405 -13.6505 11.7502 -24.6144 10.7937 -104.333 -14.42 -1.50434 7.51036 -99.5423 -38.6964 60.0856 -52.0563 6.17312 38.8114 0.266717 -1.81453 -56.1294 19.3571 0.825988 0.402679 14.1206 15.1987 1.4989 7.14549 15.0301 7.85356 
